<svg width="28" height="23" viewBox="0 0 28 23" fill="none" xmlns="http://www.w3.org/2000/svg">
<g clip-path="url(#clip0_324_2076)">
<path d="M27.737 3.1125C26.9754 4.23542 26.0547 5.19219 24.9749 5.98281C24.9863 6.14323 24.992 6.38385 24.992 6.70469C24.992 8.19427 24.776 9.68099 24.3441 11.1648C23.9121 12.6487 23.2557 14.0724 22.3748 15.4359C21.4939 16.7995 20.4453 18.0055 19.2291 19.0539C18.0128 20.1023 16.5465 20.9388 14.8302 21.5633C13.1138 22.1878 11.2781 22.5 9.32301 22.5C6.24264 22.5 3.42371 21.6693 0.866211 20.0078C1.26404 20.0536 1.70734 20.0766 2.19611 20.0766C4.75361 20.0766 7.03263 19.2859 9.03316 17.7047C7.83966 17.6818 6.77119 17.3122 5.82776 16.5961C4.88433 15.8799 4.23643 14.9661 3.88406 13.8547C4.25916 13.912 4.60584 13.9406 4.92411 13.9406C5.41288 13.9406 5.89596 13.8776 6.37336 13.7516C5.10029 13.488 4.04604 12.8492 3.21059 11.8352C2.37514 10.8211 1.95741 9.64375 1.95741 8.30313V8.23438C2.73034 8.66979 3.56011 8.90469 4.44671 8.93906C3.69651 8.4349 3.09976 7.77604 2.65646 6.9625C2.21316 6.14896 1.99151 5.26667 1.99151 4.31563C1.99151 3.30729 2.24158 2.37344 2.74171 1.51406C4.11708 3.22135 5.79082 4.58776 7.76294 5.61328C9.73505 6.6388 11.8464 7.20885 14.097 7.32344C14.0061 6.88802 13.9606 6.46406 13.9606 6.05156C13.9606 4.51615 14.4977 3.20703 15.5718 2.12422C16.646 1.04141 17.9446 0.5 19.4678 0.5C21.0591 0.5 22.4004 1.08438 23.4916 2.25313C24.7305 2.0125 25.8956 1.56563 26.9868 0.9125C26.5662 2.23021 25.7592 3.25 24.5657 3.97188C25.6228 3.85729 26.6799 3.57083 27.737 3.1125Z" fill="white"/>
</g>
<defs>
<clipPath id="clip0_324_2076">
<rect width="27.28" height="22" fill="white" transform="translate(0.661621 0.5)"/>
</clipPath>
</defs>
</svg>
