<svg width="20" height="19" viewBox="0 0 20 19" fill="none" xmlns="http://www.w3.org/2000/svg">
<path d="M19.73 9.61998C19.73 8.41998 18.77 7.45998 17.57 7.57998C17.09 7.57998 16.49 7.81998 16.13 8.17998C14.45 7.09998 12.53 6.37998 10.49 6.37998L11.45 1.81998L14.57 2.53998C14.57 3.37998 15.29 3.97998 16.13 3.97998C16.97 3.97998 17.57 3.25998 17.57 2.41998C17.57 1.57998 16.85 0.97998 16.01 0.97998C15.41 0.97998 14.93 1.33998 14.69 1.81998L11.33 0.97998H11.09C10.97 0.97998 10.97 1.09998 10.97 1.21998L9.77 6.37998C7.73 6.37998 5.81 6.97998 4.13 8.17998C3.29 7.33998 1.97 7.33998 1.13 8.17998C0.29 9.01998 0.29 10.34 1.13 11.18C1.25 11.3 1.49 11.54 1.73 11.54V12.14C1.73 15.38 5.45 18.02 10.13 18.02C14.81 18.02 18.53 15.38 18.53 12.14V11.54C19.25 11.18 19.73 10.46 19.73 9.61998ZM5.33 11.18C5.33 10.34 6.05 9.73998 6.77 9.73998C7.61 9.73998 8.21 10.46 8.21 11.18C8.21 11.9 7.49 12.62 6.77 12.62C5.93 12.62 5.33 12.02 5.33 11.18ZM13.73 15.14C12.65 15.86 11.45 16.34 10.13 16.22C8.81 16.22 7.61 15.86 6.53 15.14C6.41 15.02 6.41 14.78 6.53 14.54C6.65 14.42 6.89 14.42 7.01 14.54C7.85 15.14 8.93 15.5 10.01 15.38C11.09 15.5 12.17 15.14 13.01 14.54C13.13 14.42 13.37 14.42 13.61 14.54C13.85 14.66 13.85 14.9 13.73 15.14ZM13.37 12.62C12.53 12.62 11.93 11.9 11.93 11.18C11.93 10.46 12.65 9.73998 13.37 9.73998C14.21 9.73998 14.81 10.46 14.81 11.18C14.93 12.02 14.21 12.62 13.37 12.62Z" fill="white"/>
</svg>
