<svg width="27" height="27" viewBox="0 0 27 27" fill="none" xmlns="http://www.w3.org/2000/svg">
<path d="M23.7184 4.29172C23.7184 4.14807 23.6614 4.01029 23.5598 3.90871C23.4582 3.80713 23.3204 3.75006 23.1768 3.75006H20.4684C19.1046 3.68212 17.7694 4.15673 16.7545 5.07019C15.7395 5.98364 15.1274 7.26168 15.0518 8.62506V11.5501H12.3434C12.1998 11.5501 12.062 11.6071 11.9604 11.7087C11.8588 11.8103 11.8018 11.9481 11.8018 12.0917V14.9084C11.8018 15.052 11.8588 15.1898 11.9604 15.2914C12.062 15.393 12.1998 15.4501 12.3434 15.4501H15.0518V22.7084C15.0518 22.852 15.1088 22.9898 15.2104 23.0914C15.312 23.193 15.4498 23.2501 15.5934 23.2501H18.8434C18.9871 23.2501 19.1249 23.193 19.2264 23.0914C19.328 22.9898 19.3851 22.852 19.3851 22.7084V15.4501H22.2234C22.3439 15.4518 22.4615 15.4133 22.5576 15.3407C22.6538 15.2681 22.7229 15.1656 22.7543 15.0492L23.5343 12.2326C23.5558 12.1525 23.5587 12.0686 23.5427 11.9873C23.5267 11.9059 23.4923 11.8294 23.4421 11.7634C23.3918 11.6975 23.3272 11.644 23.253 11.607C23.1788 11.57 23.0971 11.5505 23.0143 11.5501H19.3851V8.62506C19.412 8.35691 19.538 8.10843 19.7383 7.92814C19.9386 7.74786 20.1989 7.64871 20.4684 7.65006H23.1768C23.3204 7.65006 23.4582 7.59299 23.5598 7.49141C23.6614 7.38982 23.7184 7.25205 23.7184 7.10839V4.29172Z" fill="white"/>
</svg>
