<svg width="699" height="723" viewBox="0 0 699 723" fill="none" xmlns="http://www.w3.org/2000/svg">
<path opacity="0.08" fill-rule="evenodd" clip-rule="evenodd" d="M383.423 130.883C486.128 43.6025 642.025 -39.2402 762.382 21.4209C888.11 84.7883 858.899 275.342 920.873 401.761C961.707 485.057 1046.2 542.098 1062.41 633.438C1079.59 730.26 1080.28 845.797 1012.27 916.822C945.308 986.755 825.066 939.763 735.017 975.344C647.789 1009.81 594.361 1128.03 501.021 1118.84C408.237 1109.7 374.365 990.894 301.565 932.65C203.197 853.949 13.7219 844.264 1.16041 718.916C-11.3115 594.461 185.407 558.677 253.579 453.808C318.399 354.096 292.798 207.897 383.423 130.883Z" fill="#FB8E00"/>
</svg>
