<svg width="680" height="847" viewBox="0 0 680 847" fill="none" xmlns="http://www.w3.org/2000/svg">
<path opacity="0.08" fill-rule="evenodd" clip-rule="evenodd" d="M-9.57684 -142.118C93.1283 -229.398 249.025 -312.24 369.382 -251.579C495.11 -188.212 465.899 2.34157 527.873 128.76C568.707 212.057 653.201 269.098 669.41 360.438C686.591 457.26 687.282 572.797 619.272 643.822C552.308 713.755 432.066 666.763 342.017 702.344C254.789 736.811 201.361 855.029 108.021 845.836C15.2371 836.696 -18.6347 717.894 -91.4346 659.65C-189.803 580.949 -379.278 571.264 -391.84 445.916C-404.312 321.461 -207.593 285.676 -139.421 180.808C-74.6013 81.0964 -100.202 -65.1034 -9.57684 -142.118Z" fill="#FB8E00"/>
</svg>
